<mxfile host="app.diagrams.net" agent="Mozilla/5.0 (Windows NT 10.0; Win64; x64; rv:138.0) Gecko/20100101 Firefox/138.0" version="27.0.4">
  <diagram name="Страница — 1" id="WNwVShf3JAIYWTUbWI15">
    <mxGraphModel dx="679" dy="1125" grid="1" gridSize="10" guides="1" tooltips="1" connect="1" arrows="1" fold="1" page="1" pageScale="1" pageWidth="827" pageHeight="1169" math="0" shadow="0">
      <root>
        <mxCell id="0" />
        <mxCell id="1" parent="0" />
        <mxCell id="LoKLQNdkwTP0GIsrnYTD-1" value="" style="endArrow=none;html=1;rounded=0;" parent="1" edge="1">
          <mxGeometry width="50" height="50" relative="1" as="geometry">
            <mxPoint x="259" y="80" as="sourcePoint" />
            <mxPoint x="389" y="80" as="targetPoint" />
          </mxGeometry>
        </mxCell>
        <mxCell id="LoKLQNdkwTP0GIsrnYTD-2" value="" style="endArrow=none;html=1;rounded=0;" parent="1" edge="1">
          <mxGeometry width="50" height="50" relative="1" as="geometry">
            <mxPoint x="259" y="120" as="sourcePoint" />
            <mxPoint x="389" y="120" as="targetPoint" />
            <Array as="points">
              <mxPoint x="319" y="120" />
            </Array>
          </mxGeometry>
        </mxCell>
        <mxCell id="LoKLQNdkwTP0GIsrnYTD-3" value="" style="endArrow=none;html=1;rounded=0;edgeStyle=orthogonalEdgeStyle;curved=1;" parent="1" edge="1">
          <mxGeometry width="50" height="50" relative="1" as="geometry">
            <mxPoint x="389" y="120" as="sourcePoint" />
            <mxPoint x="389" y="80" as="targetPoint" />
            <Array as="points">
              <mxPoint x="399" y="120" />
              <mxPoint x="399" y="80" />
            </Array>
          </mxGeometry>
        </mxCell>
        <mxCell id="LoKLQNdkwTP0GIsrnYTD-4" value="" style="endArrow=none;html=1;rounded=0;edgeStyle=orthogonalEdgeStyle;curved=1;" parent="1" edge="1">
          <mxGeometry width="50" height="50" relative="1" as="geometry">
            <mxPoint x="259" y="120" as="sourcePoint" />
            <mxPoint x="259" y="80" as="targetPoint" />
            <Array as="points">
              <mxPoint x="249" y="120" />
              <mxPoint x="249" y="80" />
            </Array>
          </mxGeometry>
        </mxCell>
        <mxCell id="LoKLQNdkwTP0GIsrnYTD-13" value="" style="edgeStyle=orthogonalEdgeStyle;rounded=0;orthogonalLoop=1;jettySize=auto;html=1;" parent="1" source="LoKLQNdkwTP0GIsrnYTD-5" target="LoKLQNdkwTP0GIsrnYTD-6" edge="1">
          <mxGeometry relative="1" as="geometry" />
        </mxCell>
        <mxCell id="LoKLQNdkwTP0GIsrnYTD-5" value="&lt;font style=&quot;font-size: 20px;&quot;&gt;Начало&lt;/font&gt;" style="text;html=1;align=center;verticalAlign=middle;resizable=0;points=[];autosize=1;strokeColor=none;fillColor=none;" parent="1" vertex="1">
          <mxGeometry x="279" y="80" width="90" height="40" as="geometry" />
        </mxCell>
        <mxCell id="LoKLQNdkwTP0GIsrnYTD-14" value="" style="edgeStyle=orthogonalEdgeStyle;rounded=0;orthogonalLoop=1;jettySize=auto;html=1;entryX=0.554;entryY=-0.002;entryDx=0;entryDy=0;entryPerimeter=0;exitX=0.581;exitY=0.996;exitDx=0;exitDy=0;exitPerimeter=0;" parent="1" source="6eKixkPit4OPT5rMc_GE-1" target="LoKLQNdkwTP0GIsrnYTD-7" edge="1">
          <mxGeometry relative="1" as="geometry">
            <Array as="points">
              <mxPoint x="329" y="285" />
              <mxPoint x="329" y="335" />
              <mxPoint x="328" y="335" />
            </Array>
            <mxPoint x="329.0588235294118" y="305" as="sourcePoint" />
          </mxGeometry>
        </mxCell>
        <mxCell id="6eKixkPit4OPT5rMc_GE-2" value="" style="edgeStyle=orthogonalEdgeStyle;rounded=0;orthogonalLoop=1;jettySize=auto;html=1;" edge="1" parent="1" source="LoKLQNdkwTP0GIsrnYTD-6" target="6eKixkPit4OPT5rMc_GE-1">
          <mxGeometry relative="1" as="geometry" />
        </mxCell>
        <mxCell id="LoKLQNdkwTP0GIsrnYTD-6" value="&lt;div&gt;T&lt;sub&gt;з&lt;/sub&gt; = 60&lt;/div&gt;&lt;div&gt;Д&lt;sub&gt;вз&lt;/sub&gt; = 10000&lt;/div&gt;" style="rounded=0;whiteSpace=wrap;html=1;" parent="1" vertex="1">
          <mxGeometry x="285.25" y="150" width="77.5" height="50" as="geometry" />
        </mxCell>
        <mxCell id="LoKLQNdkwTP0GIsrnYTD-15" value="" style="edgeStyle=orthogonalEdgeStyle;rounded=0;orthogonalLoop=1;jettySize=auto;html=1;" parent="1" source="LoKLQNdkwTP0GIsrnYTD-7" target="LoKLQNdkwTP0GIsrnYTD-8" edge="1">
          <mxGeometry relative="1" as="geometry" />
        </mxCell>
        <mxCell id="LoKLQNdkwTP0GIsrnYTD-7" value="ВЫКЛ" style="shape=parallelogram;perimeter=parallelogramPerimeter;whiteSpace=wrap;html=1;fixedSize=1;" parent="1" vertex="1">
          <mxGeometry x="284" y="320" width="80" height="30" as="geometry" />
        </mxCell>
        <mxCell id="LoKLQNdkwTP0GIsrnYTD-16" style="edgeStyle=orthogonalEdgeStyle;rounded=0;orthogonalLoop=1;jettySize=auto;html=1;entryX=0.5;entryY=0;entryDx=0;entryDy=0;" parent="1" source="LoKLQNdkwTP0GIsrnYTD-8" edge="1">
          <mxGeometry relative="1" as="geometry">
            <mxPoint x="434" y="480" as="targetPoint" />
          </mxGeometry>
        </mxCell>
        <mxCell id="LoKLQNdkwTP0GIsrnYTD-8" value="ВЫКЛ = 1" style="rhombus;whiteSpace=wrap;html=1;" parent="1" vertex="1">
          <mxGeometry x="281.5" y="390" width="85" height="80" as="geometry" />
        </mxCell>
        <mxCell id="LoKLQNdkwTP0GIsrnYTD-22" value="1" style="text;html=1;align=center;verticalAlign=middle;resizable=0;points=[];autosize=1;strokeColor=none;fillColor=none;" parent="1" vertex="1">
          <mxGeometry x="251.5" y="390" width="30" height="30" as="geometry" />
        </mxCell>
        <mxCell id="LoKLQNdkwTP0GIsrnYTD-24" value="0" style="text;html=1;align=center;verticalAlign=middle;resizable=0;points=[];autosize=1;strokeColor=none;fillColor=none;" parent="1" vertex="1">
          <mxGeometry x="384" y="398" width="30" height="30" as="geometry" />
        </mxCell>
        <mxCell id="LoKLQNdkwTP0GIsrnYTD-26" value="" style="endArrow=none;html=1;rounded=0;" parent="1" edge="1">
          <mxGeometry width="50" height="50" relative="1" as="geometry">
            <mxPoint x="180" y="495" as="sourcePoint" />
            <mxPoint x="310" y="495" as="targetPoint" />
          </mxGeometry>
        </mxCell>
        <mxCell id="LoKLQNdkwTP0GIsrnYTD-27" value="" style="endArrow=none;html=1;rounded=0;" parent="1" edge="1">
          <mxGeometry width="50" height="50" relative="1" as="geometry">
            <mxPoint x="180" y="535" as="sourcePoint" />
            <mxPoint x="310" y="535" as="targetPoint" />
            <Array as="points">
              <mxPoint x="240" y="535" />
            </Array>
          </mxGeometry>
        </mxCell>
        <mxCell id="LoKLQNdkwTP0GIsrnYTD-28" value="" style="endArrow=none;html=1;rounded=0;edgeStyle=orthogonalEdgeStyle;curved=1;" parent="1" edge="1">
          <mxGeometry width="50" height="50" relative="1" as="geometry">
            <mxPoint x="310" y="535" as="sourcePoint" />
            <mxPoint x="310" y="495" as="targetPoint" />
            <Array as="points">
              <mxPoint x="320" y="535" />
              <mxPoint x="320" y="495" />
            </Array>
          </mxGeometry>
        </mxCell>
        <mxCell id="LoKLQNdkwTP0GIsrnYTD-29" value="" style="endArrow=none;html=1;rounded=0;edgeStyle=orthogonalEdgeStyle;curved=1;" parent="1" edge="1">
          <mxGeometry width="50" height="50" relative="1" as="geometry">
            <mxPoint x="180" y="535" as="sourcePoint" />
            <mxPoint x="180" y="495" as="targetPoint" />
            <Array as="points">
              <mxPoint x="170" y="535" />
              <mxPoint x="170" y="495" />
            </Array>
          </mxGeometry>
        </mxCell>
        <mxCell id="LoKLQNdkwTP0GIsrnYTD-30" value="&lt;font style=&quot;font-size: 28px;&quot;&gt;Конец&lt;/font&gt;" style="text;html=1;align=center;verticalAlign=middle;resizable=0;points=[];autosize=1;strokeColor=none;fillColor=none;" parent="1" vertex="1">
          <mxGeometry x="195" y="490" width="100" height="50" as="geometry" />
        </mxCell>
        <mxCell id="6eKixkPit4OPT5rMc_GE-1" value="&lt;div&gt;К1 = 0&lt;/div&gt;&lt;div&gt;К2 = 0&lt;/div&gt;" style="rounded=0;whiteSpace=wrap;html=1;" vertex="1" parent="1">
          <mxGeometry x="286.5" y="240" width="75" height="45" as="geometry" />
        </mxCell>
        <mxCell id="6eKixkPit4OPT5rMc_GE-4" style="edgeStyle=orthogonalEdgeStyle;rounded=0;orthogonalLoop=1;jettySize=auto;html=1;entryX=0.55;entryY=0;entryDx=0;entryDy=0;entryPerimeter=0;" edge="1" parent="1" source="LoKLQNdkwTP0GIsrnYTD-8" target="LoKLQNdkwTP0GIsrnYTD-30">
          <mxGeometry relative="1" as="geometry">
            <Array as="points">
              <mxPoint x="250" y="430" />
            </Array>
          </mxGeometry>
        </mxCell>
        <mxCell id="6eKixkPit4OPT5rMc_GE-15" value="" style="edgeStyle=orthogonalEdgeStyle;rounded=0;orthogonalLoop=1;jettySize=auto;html=1;" edge="1" parent="1" source="6eKixkPit4OPT5rMc_GE-5" target="6eKixkPit4OPT5rMc_GE-8">
          <mxGeometry relative="1" as="geometry" />
        </mxCell>
        <mxCell id="6eKixkPit4OPT5rMc_GE-5" value="&lt;div&gt;Т&lt;sub&gt;тек&lt;/sub&gt;&lt;/div&gt;&lt;div&gt;Д&lt;sub&gt;втек&lt;/sub&gt;&lt;/div&gt;" style="shape=parallelogram;perimeter=parallelogramPerimeter;whiteSpace=wrap;html=1;fixedSize=1;" vertex="1" parent="1">
          <mxGeometry x="390" y="480" width="90" height="50" as="geometry" />
        </mxCell>
        <mxCell id="6eKixkPit4OPT5rMc_GE-16" value="" style="edgeStyle=orthogonalEdgeStyle;rounded=0;orthogonalLoop=1;jettySize=auto;html=1;" edge="1" parent="1" source="6eKixkPit4OPT5rMc_GE-8" target="6eKixkPit4OPT5rMc_GE-9">
          <mxGeometry relative="1" as="geometry" />
        </mxCell>
        <mxCell id="6eKixkPit4OPT5rMc_GE-18" style="edgeStyle=orthogonalEdgeStyle;rounded=0;orthogonalLoop=1;jettySize=auto;html=1;entryX=0.5;entryY=0;entryDx=0;entryDy=0;" edge="1" parent="1" source="6eKixkPit4OPT5rMc_GE-8" target="6eKixkPit4OPT5rMc_GE-10">
          <mxGeometry relative="1" as="geometry" />
        </mxCell>
        <mxCell id="6eKixkPit4OPT5rMc_GE-8" value="Д&lt;sub&gt;тек&lt;/sub&gt; &amp;lt; Д&lt;sub&gt;вз&lt;/sub&gt; * 0.8" style="rhombus;whiteSpace=wrap;html=1;" vertex="1" parent="1">
          <mxGeometry x="382.5" y="584.5" width="105" height="105.5" as="geometry" />
        </mxCell>
        <mxCell id="6eKixkPit4OPT5rMc_GE-17" style="edgeStyle=orthogonalEdgeStyle;rounded=0;orthogonalLoop=1;jettySize=auto;html=1;" edge="1" parent="1" source="6eKixkPit4OPT5rMc_GE-9">
          <mxGeometry relative="1" as="geometry">
            <mxPoint x="435.0000000000001" y="560" as="targetPoint" />
            <Array as="points">
              <mxPoint x="360" y="745" />
              <mxPoint x="360" y="560" />
            </Array>
          </mxGeometry>
        </mxCell>
        <mxCell id="6eKixkPit4OPT5rMc_GE-9" value="К2 = 1" style="rounded=0;whiteSpace=wrap;html=1;" vertex="1" parent="1">
          <mxGeometry x="400" y="720" width="70" height="50" as="geometry" />
        </mxCell>
        <mxCell id="6eKixkPit4OPT5rMc_GE-19" style="edgeStyle=orthogonalEdgeStyle;rounded=0;orthogonalLoop=1;jettySize=auto;html=1;entryX=0.5;entryY=0;entryDx=0;entryDy=0;" edge="1" parent="1" source="6eKixkPit4OPT5rMc_GE-10" target="6eKixkPit4OPT5rMc_GE-11">
          <mxGeometry relative="1" as="geometry">
            <Array as="points">
              <mxPoint x="555" y="790" />
              <mxPoint x="437" y="790" />
            </Array>
          </mxGeometry>
        </mxCell>
        <mxCell id="6eKixkPit4OPT5rMc_GE-10" value="К2 = 0" style="rounded=0;whiteSpace=wrap;html=1;" vertex="1" parent="1">
          <mxGeometry x="520" y="670" width="70" height="50" as="geometry" />
        </mxCell>
        <mxCell id="6eKixkPit4OPT5rMc_GE-20" value="" style="edgeStyle=orthogonalEdgeStyle;rounded=0;orthogonalLoop=1;jettySize=auto;html=1;" edge="1" parent="1" source="6eKixkPit4OPT5rMc_GE-11" target="6eKixkPit4OPT5rMc_GE-12">
          <mxGeometry relative="1" as="geometry" />
        </mxCell>
        <mxCell id="6eKixkPit4OPT5rMc_GE-11" value="Т&lt;sub&gt;тек&lt;/sub&gt; &amp;lt; Т&lt;sub&gt;з&lt;/sub&gt;" style="rhombus;whiteSpace=wrap;html=1;" vertex="1" parent="1">
          <mxGeometry x="384" y="850" width="105" height="105.5" as="geometry" />
        </mxCell>
        <mxCell id="6eKixkPit4OPT5rMc_GE-21" style="edgeStyle=orthogonalEdgeStyle;rounded=0;orthogonalLoop=1;jettySize=auto;html=1;" edge="1" parent="1" source="6eKixkPit4OPT5rMc_GE-12">
          <mxGeometry relative="1" as="geometry">
            <mxPoint x="436.5" y="810" as="targetPoint" />
            <Array as="points">
              <mxPoint x="360" y="1011" />
              <mxPoint x="360" y="810" />
            </Array>
          </mxGeometry>
        </mxCell>
        <mxCell id="6eKixkPit4OPT5rMc_GE-12" value="К2 = 1" style="rounded=0;whiteSpace=wrap;html=1;" vertex="1" parent="1">
          <mxGeometry x="401.5" y="985.5" width="70" height="50" as="geometry" />
        </mxCell>
        <mxCell id="6eKixkPit4OPT5rMc_GE-23" style="edgeStyle=elbowEdgeStyle;rounded=0;orthogonalLoop=1;jettySize=auto;html=1;" edge="1" parent="1" source="6eKixkPit4OPT5rMc_GE-13">
          <mxGeometry relative="1" as="geometry">
            <mxPoint x="330" y="300" as="targetPoint" />
            <Array as="points">
              <mxPoint x="610" y="620" />
            </Array>
          </mxGeometry>
        </mxCell>
        <mxCell id="6eKixkPit4OPT5rMc_GE-13" value="К2 = 0" style="rounded=0;whiteSpace=wrap;html=1;" vertex="1" parent="1">
          <mxGeometry x="521.5" y="935.5" width="70" height="50" as="geometry" />
        </mxCell>
        <mxCell id="6eKixkPit4OPT5rMc_GE-22" style="edgeStyle=orthogonalEdgeStyle;rounded=0;orthogonalLoop=1;jettySize=auto;html=1;entryX=0.606;entryY=0.002;entryDx=0;entryDy=0;entryPerimeter=0;" edge="1" parent="1" source="6eKixkPit4OPT5rMc_GE-11" target="6eKixkPit4OPT5rMc_GE-13">
          <mxGeometry relative="1" as="geometry" />
        </mxCell>
      </root>
    </mxGraphModel>
  </diagram>
</mxfile>
